<svg width="40" height="40" viewBox="0 0 40 40" fill="none" xmlns="http://www.w3.org/2000/svg">
<g id="Facebook_f_logo_(2021) 1" clip-path="url(#clip0_217_179)">
<path id="Vector" d="M16.7 39.8C7.2 38.1 0 29.9 0 20C0 9 9 0 20 0C31 0 40 9 40 20C40 29.9 32.8 38.1 23.3 39.8L22.2 38.9H17.8L16.7 39.8Z" fill="url(#paint0_linear_217_179)"/>
<path id="Vector_2" d="M27.8008 25.5998L28.7008 19.9998H23.4008V16.0998C23.4008 14.4998 24.0008 13.2998 26.4008 13.2998H29.0008V8.1998C27.6008 7.9998 26.0008 7.7998 24.6008 7.7998C20.0008 7.7998 16.8008 10.5998 16.8008 15.5998V19.9998H11.8008V25.5998H16.8008V39.6998C17.9008 39.8998 19.0008 39.9998 20.1008 39.9998C21.2008 39.9998 22.3008 39.8998 23.4008 39.6998V25.5998H27.8008Z" fill="white"/>
</g>
<defs>
<linearGradient id="paint0_linear_217_179" x1="20.001" y1="38.6089" x2="20.001" y2="-0.00736777" gradientUnits="userSpaceOnUse">
<stop stop-color="#0062E0"/>
<stop offset="1" stop-color="#19AFFF"/>
</linearGradient>
<clipPath id="clip0_217_179">
<rect width="40" height="40" fill="white"/>
</clipPath>
</defs>
</svg>
