<svg width="40" height="40" fill="none" xmlns="http://www.w3.org/2000/svg"><path d="M20.011.303C11.786.303 9.381.31 8.913.35c-1.688.14-2.739.406-3.883.976a7.865 7.865 0 00-2.264 1.657C1.516 4.28.758 5.877.484 7.775c-.133.921-.172 1.109-.18 5.815-.003 1.568 0 3.633 0 6.402 0 8.218.01 10.622.049 11.088.136 1.643.394 2.676.939 3.807 1.043 2.163 3.034 3.788 5.38 4.394.811.209 1.708.324 2.86.379.488.02 5.461.036 10.437.036 4.976 0 9.952-.006 10.428-.03 1.334-.063 2.108-.167 2.964-.388a8.25 8.25 0 005.38-4.404c.534-1.103.805-2.175.928-3.732.027-.34.038-5.751.038-11.155 0-5.406-.012-10.807-.039-11.147-.124-1.582-.395-2.645-.948-3.77a7.809 7.809 0 00-1.686-2.31C35.73 1.515 34.136.757 32.237.483c-.92-.133-1.104-.172-5.813-.18H20.01z" fill="url(#paint0_radial_217_175)"/><path d="M20.011.303C11.786.303 9.381.31 8.913.35c-1.688.14-2.739.406-3.883.976a7.865 7.865 0 00-2.264 1.657C1.516 4.28.758 5.877.484 7.775c-.133.921-.172 1.109-.18 5.815-.003 1.568 0 3.633 0 6.402 0 8.218.01 10.622.049 11.088.136 1.643.394 2.676.939 3.807 1.043 2.163 3.034 3.788 5.38 4.394.811.209 1.708.324 2.86.379.488.02 5.461.036 10.437.036 4.976 0 9.952-.006 10.428-.03 1.334-.063 2.108-.167 2.964-.388a8.25 8.25 0 005.38-4.404c.534-1.103.805-2.175.928-3.732.027-.34.038-5.751.038-11.155 0-5.406-.012-10.807-.039-11.147-.124-1.582-.395-2.645-.948-3.77a7.809 7.809 0 00-1.686-2.31C35.73 1.515 34.136.757 32.237.483c-.92-.133-1.104-.172-5.813-.18H20.01z" fill="url(#paint1_radial_217_175)"/><path d="M20.003 5.455c-3.95 0-4.447.017-5.998.087-1.549.071-2.606.317-3.53.676a7.123 7.123 0 00-2.578 1.678 7.141 7.141 0 00-1.679 2.576c-.36.925-.606 1.983-.675 3.53-.07 1.552-.088 2.048-.088 6 0 3.95.018 4.444.088 5.995.071 1.55.316 2.606.676 3.531a7.128 7.128 0 001.677 2.577 7.122 7.122 0 002.576 1.679c.926.36 1.983.605 3.532.676 1.551.07 2.047.087 5.997.087 3.95 0 4.445-.017 5.997-.087 1.548-.071 2.607-.316 3.532-.676a7.116 7.116 0 002.575-1.68 7.14 7.14 0 001.679-2.576c.358-.925.603-1.982.676-3.53.07-1.552.088-2.046.088-5.997 0-3.95-.019-4.446-.088-5.998-.073-1.549-.318-2.606-.676-3.53a7.138 7.138 0 00-1.679-2.577 7.11 7.11 0 00-2.576-1.678c-.927-.36-1.985-.605-3.533-.676-1.552-.07-2.046-.087-5.998-.087h.005zm-1.305 2.621h1.305c3.884 0 4.344.014 5.878.084 1.418.064 2.188.301 2.7.5a4.499 4.499 0 011.672 1.089c.51.509.825.993 1.089 1.672.199.513.436 1.282.5 2.7.07 1.534.085 1.995.085 5.877 0 3.882-.015 4.342-.084 5.876-.065 1.418-.302 2.188-.501 2.7a4.497 4.497 0 01-1.089 1.671 4.5 4.5 0 01-1.672 1.088c-.512.2-1.282.437-2.7.501-1.534.07-1.994.085-5.878.085-3.884 0-4.345-.015-5.878-.085-1.418-.065-2.188-.302-2.701-.501a4.506 4.506 0 01-1.673-1.088 4.509 4.509 0 01-1.089-1.672c-.199-.512-.436-1.282-.5-2.7-.07-1.534-.084-1.994-.084-5.879 0-3.884.014-4.343.083-5.876.065-1.418.302-2.188.501-2.7a4.507 4.507 0 011.089-1.674 4.51 4.51 0 011.673-1.088c.512-.2 1.283-.437 2.7-.502 1.343-.06 1.863-.079 4.574-.082v.004zm9.07 2.415a1.745 1.745 0 100 3.492 1.745 1.745 0 000-3.492zm-7.765 2.04a7.47 7.47 0 100 14.941 7.47 7.47 0 000-14.941zm0 2.621a4.849 4.849 0 110 9.698 4.849 4.849 0 010-9.698z" fill="#fff"/><defs><radialGradient id="paint0_radial_217_175" cx="0" cy="0" r="1" gradientUnits="userSpaceOnUse" gradientTransform="matrix(0 -39.0417 36.3218 0 10.77 42.73)"><stop stop-color="#FD5"/><stop offset=".1" stop-color="#FD5"/><stop offset=".5" stop-color="#FF543E"/><stop offset="1" stop-color="#C837AB"/></radialGradient><radialGradient id="paint1_radial_217_175" cx="0" cy="0" r="1" gradientUnits="userSpaceOnUse" gradientTransform="matrix(3.42634 17.11235 -70.5556 14.12709 -6.298 3.14)"><stop stop-color="#3771C8"/><stop offset=".128" stop-color="#3771C8"/><stop offset="1" stop-color="#60F" stop-opacity="0"/></radialGradient></defs></svg>