<svg width="82" height="61" fill="none" xmlns="http://www.w3.org/2000/svg"><path fill="#111" d="M0 52.915h81.539V61H0z"/><path d="M1.29 59.239v-4.542h1.819c.334 0 .612.05.836.149.223.099.39.236.503.412.112.174.169.376.169.603a.918.918 0 01-.4.796 1.198 1.198 0 01-.421.18v.044a1.037 1.037 0 01.856.526c.095.161.142.353.142.577 0 .24-.06.456-.18.645a1.21 1.21 0 01-.525.446c-.232.11-.518.164-.858.164H1.29zm.96-.785h.783c.268 0 .463-.051.586-.153a.513.513 0 00.184-.413.61.61 0 00-.091-.332.618.618 0 00-.26-.227.889.889 0 00-.397-.082H2.25v1.207zm0-1.857h.712a.847.847 0 00.35-.068.583.583 0 00.245-.2.52.52 0 00.09-.308.498.498 0 00-.175-.397c-.115-.1-.28-.15-.492-.15h-.73v1.123zm6.057-1.9h.96v2.95c0 .33-.078.62-.237.869a1.587 1.587 0 01-.658.58 2.23 2.23 0 01-.987.207c-.377 0-.707-.069-.99-.206a1.587 1.587 0 01-.658-.581 1.594 1.594 0 01-.235-.87v-2.949h.96v2.867c0 .173.038.327.113.462a.83.83 0 00.324.317.99.99 0 00.486.115.98.98 0 00.486-.115.81.81 0 00.321-.317.913.913 0 00.115-.462v-2.867zm2.794 0v4.542h-.96v-4.542h.96zm.874 4.542v-4.542h.96v3.75h1.947v.792h-2.907zm5.236 0h-1.61v-4.542h1.623c.457 0 .85.09 1.18.273.33.18.584.44.761.778.179.339.268.744.268 1.216 0 .473-.09.88-.268 1.22-.177.34-.432.6-.765.782-.331.182-.727.273-1.189.273zm-.65-.823h.61c.284 0 .523-.05.717-.15a.97.97 0 00.439-.473c.099-.215.148-.491.148-.83 0-.335-.05-.61-.148-.822a.962.962 0 00-.437-.47 1.538 1.538 0 00-.716-.151h-.613v2.896zm4.627-3.719v4.542h-.96v-4.542h.96zm4.672 0v4.542h-.829l-1.976-2.859h-.033v2.859h-.96v-4.542h.842l1.96 2.856h.04v-2.856h.956zm3.889 1.468a.994.994 0 00-.131-.286.887.887 0 00-.481-.348 1.165 1.165 0 00-.34-.047c-.232 0-.436.058-.612.173-.174.116-.31.283-.408.504a1.967 1.967 0 00-.146.803c0 .316.048.585.144.807.096.221.232.39.408.508.176.115.384.172.623.172.217 0 .403-.038.557-.115a.827.827 0 00.355-.33.982.982 0 00.124-.504l.195.03h-1.171v-.724h1.9v.572c0 .4-.084.743-.252 1.03-.169.285-.4.505-.697.66a2.17 2.17 0 01-1.015.23c-.426 0-.8-.093-1.122-.28a1.954 1.954 0 01-.755-.806c-.178-.349-.268-.763-.268-1.242 0-.368.053-.696.16-.984.108-.29.259-.535.452-.737.194-.2.42-.354.677-.459a2.19 2.19 0 01.836-.157c.257 0 .497.038.718.113.222.074.419.179.59.315.173.136.314.298.424.486.11.186.18.391.21.616h-.975zm4.311-1.468v4.542h-.96v-4.542h.96zm.873 0h1.185l1.25 3.051h.054l1.25-3.051h1.185v4.542h-.932v-2.956h-.037l-1.176 2.934h-.634l-1.175-2.945h-.038v2.967h-.932v-4.542zm5.798 4.542v-4.542h1.792c.344 0 .638.066.88.197.243.13.428.312.555.544.128.23.193.496.193.798 0 .302-.065.568-.196.798-.13.231-.318.41-.565.54-.245.128-.543.192-.892.192h-1.142v-.77h.987a.97.97 0 00.457-.095.632.632 0 00.27-.268.84.84 0 00.092-.397.82.82 0 00-.091-.395.607.607 0 00-.27-.264.988.988 0 00-.462-.095h-.648v3.757h-.96zm4.127 0v-4.542h1.792c.343 0 .635.061.878.184.244.121.43.294.556.517.129.221.193.482.193.783 0 .301-.065.56-.195.778-.13.216-.318.381-.565.497-.246.115-.543.173-.892.173h-1.2v-.772h1.045c.183 0 .336-.025.457-.075a.543.543 0 00.27-.227.707.707 0 00.091-.374.752.752 0 00-.09-.382.557.557 0 00-.273-.235 1.12 1.12 0 00-.46-.082h-.647v3.757h-.96zm2.452-2.067l1.13 2.067h-1.06l-1.105-2.067h1.035zm5.903-.204c0 .495-.094.916-.282 1.264-.186.347-.44.613-.763.796a2.15 2.15 0 01-1.082.273c-.404 0-.766-.092-1.087-.275a1.958 1.958 0 01-.76-.796c-.186-.348-.28-.768-.28-1.262 0-.495.093-.917.28-1.264.186-.348.44-.612.76-.794a2.155 2.155 0 011.087-.275c.4 0 .762.092 1.082.275.323.182.577.446.763.794.188.347.282.769.282 1.264zm-.974 0c0-.32-.048-.592-.144-.812a1.099 1.099 0 00-.401-.501 1.08 1.08 0 00-.608-.17 1.08 1.08 0 00-.608.17c-.172.114-.307.28-.403.501-.095.22-.142.491-.142.812 0 .32.047.591.142.812.096.22.23.387.403.5.173.115.376.172.608.172.232 0 .435-.057.608-.171.173-.114.307-.281.401-.501.096-.22.144-.491.144-.812zm2.333-2.271l1.098 3.45h.042l1.1-3.45h1.064l-1.565 4.542h-1.238l-1.568-4.542h1.067zm3.934 4.542v-4.542h3.06v.792h-2.1v1.082h1.943v.792h-1.943v1.084h2.11v.792h-3.07zm3.907-4.542h1.184l1.251 3.051h.053l1.251-3.051h1.184v4.542h-.93v-2.956h-.039l-1.175 2.934h-.634l-1.176-2.945h-.037v2.967h-.932v-4.542zm5.798 4.542v-4.542h3.06v.792h-2.1v1.082h1.943v.792H69.17v1.084h2.11v.792h-3.07zm7.706-4.542v4.542h-.83l-1.975-2.859h-.034v2.859h-.96v-4.542h.843l1.96 2.856h.04v-2.856h.956zm.703.792v-.792h3.628v.792H78.96v3.75h-.949v-3.75h-1.39z" fill="#FFCE00"/><path d="M.001 49.475V35.386H6.16c1.53 0 2.871.295 4.025.886 1.154.59 2.053 1.409 2.697 2.455.644 1.047.966 2.281.966 3.704 0 1.408-.322 2.643-.966 3.703-.644 1.046-1.543 1.865-2.697 2.455-1.154.59-2.496.886-4.025.886H0zm2.616-2.214H6.04c1.06 0 1.972-.201 2.737-.604a4.279 4.279 0 001.792-1.69c.429-.725.643-1.57.643-2.536 0-.98-.214-1.825-.643-2.536a4.278 4.278 0 00-1.792-1.691C8.011 37.801 7.1 37.6 6.04 37.6H2.617v9.661zm17.505-6.018h7.005v2.154h-7.005v-2.154zm.202 6.038h7.95v2.194H17.707V35.386h10.285v2.194h-7.668v9.701zm11.945 2.194V35.386h2.153l8.836 10.848H42.19V35.386h2.596v14.089h-2.153l-8.836-10.848h1.067v10.848H32.27zm15.379 0l6.34-14.089h2.577l6.36 14.089h-2.738l-5.454-12.7h1.047l-5.435 12.7h-2.697zm2.919-3.26l.704-2.054h7.608l.705 2.053h-9.017zm15.227 3.26V35.386h2.617v11.875h7.366v2.214h-9.983zm13.127 0V35.386h2.617v14.089H78.92z" fill="#CA2A1D"/><path d="M48.934 29.185l-3.296-3.75 6.364-3.22 11.706 7.122h-1.402l-9.243-5.57-4.13 5.418zm-8.827-7.463L20.219 29.83l12.766-.417 6.933-6.023 7.917 8.561h1.402l-9.13-10.228z" fill="#111"/><path d="M10.975 20.131L.406 31.988l11.82-10.645c.424-.394.909-.492 1.325-.492h2.842c1.151 0 1.853-.433 2.235-.834 2.02-2.121 6.091-6.394 6.212-6.515.122-.122.253-.127.303-.114.485.09 1.97 1.654 2.652 2.425.303.303.302.454.227.606-1.97 4.03-2.007 7.084-1.666 9.091L46.092 7.478c.212-.151.342-.151.53-.038 1.758 1.061 2.577 3.865 2.501 5.19-3.121 2.455-5.19 6.516-5.948 9.206l4.66-2.5c.485-.182.871-.152 1.288 0l13.675 6.743c.758.363 1.402.303 1.895.075l3.409-1.704c.796-.417 1.288-.53 2.5 0l10.532 5.19-11.252-12.047c-.745.745-2.288 2.296-2.5 2.538-.212.242-.442.101-.53 0L49.16 1.001C47.456 3.083 44 7.303 43.819 7.515c-.227.265-.795.606-1.666.568-.697-.03-1.15.24-1.288.38l-7.956 8.182c-.242.242-.378.114-.53 0l-6.819-5.682c-.636-.576-.871-.455-1.288 0l-6.478 6.97c-.848.879-1.25 1.402-2.045 1.402h-3.334c-.636 0-1.225.53-1.44.795z" fill="#111"/><path d="M16.241 22.518l-7.5 9.735 1.78-.757 6.099-7.387 4.66 3.94 4.09-2.084-9.129-3.447z" fill="#111"/><path d="M16.506 26.609h-1.06v1.099h1.06v-1.099zm37.011-.265h-.985v1.06h.985v-1.06zm1.288 0h-.985v1.06h.985v-1.06zm0 1.288h-.985v1.06h.985v-1.06zm-1.288 0h-.985v1.06h.985v-1.06zM40.865 25.89h-1.213v1.287h1.213V25.89zm-1.667 0h-1.212v1.287h1.212V25.89zm0 1.742h-1.212v1.288h1.212v-1.288zm1.667 0h-1.213v1.288h1.213v-1.288zm-22.881-1.023h-1.061v1.099h1.06v-1.099zm0 1.326h-1.061v1.098h1.06v-1.098zm-1.44 0h-1.06v1.098h1.06v-1.098z" fill="#111"/><path d="M48.934 29.185l-3.296-3.75 6.364-3.22 11.706 7.122h-1.402l-9.243-5.57-4.13 5.418zm-8.827-7.463L20.219 29.83l12.766-.417 6.933-6.023 7.917 8.561h1.402l-9.13-10.228z" stroke="#111" stroke-width=".076"/><path d="M10.975 20.131L.406 31.988l11.82-10.645c.424-.394.909-.492 1.325-.492h2.842c1.151 0 1.853-.433 2.235-.834 2.02-2.121 6.091-6.394 6.212-6.515.122-.122.253-.127.303-.114.485.09 1.97 1.654 2.652 2.425.303.303.302.454.227.606-1.97 4.03-2.007 7.084-1.666 9.091L46.092 7.478c.212-.151.342-.151.53-.038 1.758 1.061 2.577 3.865 2.501 5.19-3.121 2.455-5.19 6.516-5.948 9.206l4.66-2.5c.485-.182.871-.152 1.288 0l13.675 6.743c.758.363 1.402.303 1.895.075l3.409-1.704c.796-.417 1.288-.53 2.5 0l10.532 5.19-11.252-12.047c-.745.745-2.288 2.296-2.5 2.538-.212.242-.442.101-.53 0L49.16 1.001C47.456 3.083 44 7.303 43.819 7.515c-.227.265-.795.606-1.666.568-.697-.03-1.15.24-1.288.38l-7.956 8.182c-.242.242-.378.114-.53 0l-6.819-5.682c-.636-.576-.871-.455-1.288 0l-6.478 6.97c-.848.879-1.25 1.402-2.045 1.402h-3.334c-.636 0-1.225.53-1.44.795z" stroke="#111" stroke-width=".076"/><path d="M16.241 22.518l-7.5 9.735 1.78-.757 6.099-7.387 4.66 3.94 4.09-2.084-9.129-3.447z" stroke="#111" stroke-width=".076"/><path d="M16.506 26.609h-1.06v1.099h1.06v-1.099zm37.011-.265h-.985v1.06h.985v-1.06zm1.288 0h-.985v1.06h.985v-1.06zm0 1.288h-.985v1.06h.985v-1.06zm-1.288 0h-.985v1.06h.985v-1.06zM40.865 25.89h-1.213v1.287h1.213V25.89zm-1.667 0h-1.212v1.287h1.212V25.89zm0 1.742h-1.212v1.288h1.212v-1.288zm1.667 0h-1.213v1.288h1.213v-1.288zm-22.881-1.023h-1.061v1.099h1.06v-1.099zm0 1.326h-1.061v1.098h1.06v-1.098zm-1.44 0h-1.06v1.098h1.06v-1.098z" stroke="#111" stroke-width=".076"/></svg>