<svg width="85" height="60" viewBox="0 0 85 60" fill="none" xmlns="http://www.w3.org/2000/svg">
    <g clip-path="url(#clip0_217_161)">
        <path
            d="M4.65234 49.4346V36.52H10.2979C11.7 36.52 12.93 36.7906 13.9877 37.3318C15.0455 37.873 15.8696 38.6233 16.46 39.5826C17.0503 40.542 17.3455 41.6736 17.3455 42.9773C17.3455 44.2688 17.0503 45.4003 16.46 46.372C15.8696 47.3314 15.0455 48.0817 13.9877 48.6228C12.93 49.164 11.7 49.4346 10.2979 49.4346H4.65234ZM7.05077 47.4052H10.1872C11.1588 47.4052 11.9952 47.2207 12.6963 46.8517C13.4097 46.4827 13.957 45.9661 14.3383 45.3019C14.7319 44.6378 14.9287 43.8629 14.9287 42.9773C14.9287 42.0794 14.7319 41.3046 14.3383 40.6527C13.957 39.9885 13.4097 39.4719 12.6963 39.1029C11.9952 38.7339 11.1588 38.5495 10.1872 38.5495H7.05077V47.4052Z"
            fill="#CA2A1D" />
        <path
            d="M23.097 41.8888H29.5174V43.8629H23.097V41.8888ZM23.2815 47.4236H30.569V49.4346H20.8831V36.52H30.3107V38.531H23.2815V47.4236Z"
            fill="#CA2A1D" />
        <path
            d="M34.2311 49.4346V36.52H36.2052L44.3045 46.4643H43.3267V36.52H45.7066V49.4346H43.7326L35.6333 39.4904H36.6111V49.4346H34.2311Z"
            fill="#CA2A1D" />
        <path
            d="M48.3291 49.4346L54.1406 36.52H56.5022L62.3322 49.4346H59.8231L54.8233 37.793H55.7826L50.8013 49.4346H48.3291ZM51.0042 46.4458L51.65 44.564H58.6239L59.2696 46.4458H51.0042Z"
            fill="#CA2A1D" />
        <path d="M64.963 49.4346V36.52H67.3614V47.4052H74.1139V49.4346H64.963Z" fill="#CA2A1D" />
        <path d="M76.9958 49.4346V36.52H79.3942V49.4346H76.9958Z" fill="#CA2A1D" />
        <rect width="74.7438" height="7.4113" transform="translate(4.65234 52.5884)" fill="#FFCE00" />
        <path
            d="M5.83594 58.3853V54.222H7.5029C7.80918 54.222 8.06465 54.2674 8.26929 54.3582C8.47393 54.449 8.62775 54.575 8.73075 54.7363C8.83375 54.8962 8.88525 55.0805 8.88525 55.2892C8.88525 55.4518 8.85272 55.5948 8.78767 55.7182C8.72262 55.8401 8.63317 55.9404 8.51933 56.019C8.40685 56.0963 8.2781 56.1512 8.13309 56.1837V56.2243C8.29165 56.2311 8.44005 56.2758 8.57829 56.3585C8.71788 56.4412 8.83104 56.5571 8.91778 56.7061C9.00451 56.8539 9.04788 57.03 9.04788 57.2347C9.04788 57.4556 8.99299 57.6528 8.88322 57.8262C8.7748 57.9984 8.6142 58.1346 8.40143 58.2349C8.18865 58.3351 7.92641 58.3853 7.6147 58.3853H5.83594ZM6.71617 57.6657H7.43378C7.67908 57.6657 7.85797 57.6189 7.97046 57.5254C8.08294 57.4305 8.13919 57.3045 8.13919 57.1473C8.13919 57.0321 8.1114 56.9304 8.05584 56.8423C8.00027 56.7542 7.92099 56.6851 7.81799 56.635C7.71635 56.5848 7.59505 56.5598 7.45411 56.5598H6.71617V57.6657ZM6.71617 55.9641H7.36873C7.48934 55.9641 7.59641 55.9431 7.68992 55.9011C7.78479 55.8577 7.85933 55.7968 7.91354 55.7182C7.9691 55.6396 7.99688 55.5454 7.99688 55.4356C7.99688 55.2852 7.94335 55.1639 7.83629 55.0717C7.73058 54.9795 7.58014 54.9335 7.38499 54.9335H6.71617V55.9641Z"
            fill="#111111" />
        <path
            d="M12.2686 54.222H13.1488V56.9257C13.1488 57.2293 13.0763 57.4949 12.9313 57.7226C12.7876 57.9503 12.5864 58.1278 12.3275 58.2552C12.0687 58.3812 11.7671 58.4442 11.4229 58.4442C11.0773 58.4442 10.7751 58.3812 10.5162 58.2552C10.2574 58.1278 10.0561 57.9503 9.91246 57.7226C9.7688 57.4949 9.69697 57.2293 9.69697 56.9257V54.222H10.5772V56.8505C10.5772 57.009 10.6118 57.15 10.6809 57.2733C10.7514 57.3966 10.8503 57.4935 10.9777 57.564C11.1051 57.6345 11.2535 57.6697 11.4229 57.6697C11.5936 57.6697 11.742 57.6345 11.8681 57.564C11.9955 57.4935 12.0937 57.3966 12.1628 57.2733C12.2333 57.15 12.2686 57.009 12.2686 56.8505V54.222Z"
            fill="#111111" />
        <path d="M14.8296 54.222V58.3853H13.9493V54.222H14.8296Z" fill="#111111" />
        <path d="M15.6301 58.3853V54.222H16.5103V57.6596H18.2952V58.3853H15.6301Z" fill="#111111" />
        <path
            d="M20.4303 58.3853H18.9545V54.222H20.4425C20.8613 54.222 21.2218 54.3053 21.524 54.472C21.8262 54.6373 22.0587 54.8752 22.2213 55.1855C22.3853 55.4959 22.4673 55.8672 22.4673 56.2996C22.4673 56.7332 22.3853 57.1059 22.2213 57.4176C22.0587 57.7293 21.8249 57.9685 21.52 58.1352C21.2164 58.3019 20.8532 58.3853 20.4303 58.3853ZM19.8347 57.6311H20.3937C20.6539 57.6311 20.8728 57.585 21.0504 57.4929C21.2293 57.3993 21.3634 57.255 21.4529 57.0599C21.5437 56.8633 21.5891 56.6099 21.5891 56.2996C21.5891 55.9919 21.5437 55.7405 21.4529 55.5454C21.3634 55.3502 21.2299 55.2065 21.0524 55.1144C20.8749 55.0222 20.656 54.9762 20.3958 54.9762H19.8347V57.6311Z"
            fill="#111111" />
        <path d="M24.0759 54.222V58.3853H23.1956V54.222H24.0759Z" fill="#111111" />
        <path
            d="M28.3587 54.222V58.3853H27.5984L25.7871 55.7649H25.7567V58.3853H24.8764V54.222H25.6489L27.446 56.8403H27.4826V54.222H28.3587Z"
            fill="#111111" />
        <path
            d="M31.923 55.5677C31.8945 55.4688 31.8545 55.3814 31.803 55.3055C31.7515 55.2282 31.6885 55.1632 31.614 55.1103C31.5408 55.0561 31.4568 55.0148 31.3619 54.9863C31.2684 54.9579 31.1647 54.9436 31.0509 54.9436C30.8381 54.9436 30.6511 54.9965 30.4898 55.1022C30.3299 55.2079 30.2052 55.3617 30.1157 55.5637C30.0263 55.7642 29.9816 56.0095 29.9816 56.2996C29.9816 56.5896 30.0256 56.8362 30.1137 57.0395C30.2018 57.2428 30.3265 57.398 30.4878 57.5051C30.649 57.6108 30.8394 57.6636 31.059 57.6636C31.2582 57.6636 31.4283 57.6284 31.5693 57.5579C31.7116 57.4861 31.82 57.3851 31.8945 57.255C31.9704 57.1249 32.0084 56.9711 32.0084 56.7935L32.1872 56.82H31.1139V56.1573H32.8561V56.6817C32.8561 57.0477 32.7788 57.3621 32.6243 57.625C32.4698 57.8866 32.257 58.0885 31.986 58.2308C31.7149 58.3717 31.4046 58.4422 31.0549 58.4422C30.6646 58.4422 30.3217 58.3562 30.0263 58.184C29.7309 58.0106 29.5005 57.7646 29.3351 57.4461C29.1711 57.1263 29.0891 56.7468 29.0891 56.3077C29.0891 55.9702 29.1379 55.6694 29.2355 55.4051C29.3344 55.1395 29.4727 54.9145 29.6502 54.7302C29.8278 54.5459 30.0344 54.4056 30.2702 54.3094C30.5061 54.2132 30.7615 54.165 31.0366 54.165C31.2725 54.165 31.492 54.1996 31.6953 54.2687C31.8986 54.3365 32.0788 54.4327 32.236 54.5574C32.3946 54.6821 32.524 54.8305 32.6243 55.0026C32.7246 55.1733 32.789 55.3617 32.8174 55.5677H31.923Z"
            fill="#111111" />
        <path d="M35.8751 54.222V58.3853H34.9948V54.222H35.8751Z" fill="#111111" />
        <path
            d="M36.6756 54.222H37.7612L38.9077 57.0192H38.9565L40.103 54.222H41.1886V58.3853H40.3348V55.6755H40.3002L39.2228 58.365H38.6414L37.564 55.6653H37.5294V58.3853H36.6756V54.222Z"
            fill="#111111" />
        <path
            d="M41.9902 58.3853V54.222H43.6327C43.9485 54.222 44.2175 54.2823 44.4398 54.4029C44.662 54.5221 44.8314 54.6882 44.948 54.9009C45.0659 55.1124 45.1248 55.3563 45.1248 55.6328C45.1248 55.9092 45.0652 56.1532 44.946 56.3646C44.8267 56.576 44.6539 56.7407 44.4276 56.8586C44.2026 56.9765 43.9302 57.0355 43.6104 57.0355H42.5634V56.3301H43.4681C43.6375 56.3301 43.7771 56.3009 43.8868 56.2426C43.998 56.183 44.0806 56.101 44.1348 55.9967C44.1904 55.891 44.2182 55.7697 44.2182 55.6328C44.2182 55.4945 44.1904 55.3739 44.1348 55.2709C44.0806 55.1666 43.998 55.0859 43.8868 55.029C43.7757 54.9707 43.6347 54.9416 43.464 54.9416H42.8704V58.3853H41.9902Z"
            fill="#111111" />
        <path
            d="M45.7729 58.3853V54.222H47.4155C47.7299 54.222 47.9982 54.2782 48.2205 54.3907C48.4441 54.5018 48.6142 54.6597 48.7308 54.8643C48.8487 55.0676 48.9076 55.3068 48.9076 55.582C48.9076 55.8584 48.848 56.0963 48.7287 56.2955C48.6095 56.4934 48.4367 56.6451 48.2103 56.7509C47.9854 56.8566 47.713 56.9094 47.3931 56.9094H46.2933V56.202H47.2508C47.4189 56.202 47.5585 56.1789 47.6696 56.1329C47.7807 56.0868 47.8634 56.0177 47.9176 55.9255C47.9732 55.8334 48.0009 55.7188 48.0009 55.582C48.0009 55.4437 47.9732 55.3272 47.9176 55.2323C47.8634 55.1374 47.78 55.0656 47.6676 55.0168C47.5564 54.9667 47.4162 54.9416 47.2468 54.9416H46.6532V58.3853H45.7729ZM48.0213 56.4906L49.056 58.3853H48.0843L47.0719 56.4906H48.0213Z"
            fill="#111111" />
        <path
            d="M53.4319 56.3036C53.4319 56.7576 53.3458 57.1439 53.1737 57.4624C53.0029 57.7808 52.7698 58.0241 52.4744 58.1922C52.1803 58.3589 51.8496 58.4422 51.4823 58.4422C51.1124 58.4422 50.7803 58.3582 50.4862 58.1901C50.1921 58.0221 49.9597 57.7788 49.789 57.4603C49.6182 57.1418 49.5328 56.7563 49.5328 56.3036C49.5328 55.8496 49.6182 55.4634 49.789 55.1449C49.9597 54.8264 50.1921 54.5838 50.4862 54.4171C50.7803 54.2491 51.1124 54.165 51.4823 54.165C51.8496 54.165 52.1803 54.2491 52.4744 54.4171C52.7698 54.5838 53.0029 54.8264 53.1737 55.1449C53.3458 55.4634 53.4319 55.8496 53.4319 56.3036ZM52.5394 56.3036C52.5394 56.0095 52.4954 55.7615 52.4073 55.5596C52.3206 55.3577 52.1979 55.2045 52.0394 55.1002C51.8808 54.9958 51.6951 54.9436 51.4823 54.9436C51.2696 54.9436 51.0839 54.9958 50.9253 55.1002C50.7668 55.2045 50.6434 55.3577 50.5554 55.5596C50.4686 55.7615 50.4253 56.0095 50.4253 56.3036C50.4253 56.5977 50.4686 56.8457 50.5554 57.0477C50.6434 57.2496 50.7668 57.4027 50.9253 57.5071C51.0839 57.6114 51.2696 57.6636 51.4823 57.6636C51.6951 57.6636 51.8808 57.6114 52.0394 57.5071C52.1979 57.4027 52.3206 57.2496 52.4073 57.0477C52.4954 56.8457 52.5394 56.5977 52.5394 56.3036Z"
            fill="#111111" />
        <path
            d="M54.6776 54.222L55.6839 57.3851H55.7225L56.7308 54.222H57.7066L56.2714 58.3853H55.137L53.6998 54.222H54.6776Z"
            fill="#111111" />
        <path
            d="M58.284 58.3853V54.222H61.0894V54.9477H59.1643V55.9397H60.9451V56.6655H59.1643V57.6596H61.0975V58.3853H58.284Z"
            fill="#111111" />
        <path
            d="M61.8655 54.222H62.9511L64.0976 57.0192H64.1464L65.293 54.222H66.3785V58.3853H65.5247V55.6755H65.4902L64.4127 58.365H63.8313L62.7539 55.6653H62.7193V58.3853H61.8655V54.222Z"
            fill="#111111" />
        <path
            d="M67.1801 58.3853V54.222H69.9855V54.9477H68.0603V55.9397H69.8411V56.6655H68.0603V57.6596H69.9936V58.3853H67.1801Z"
            fill="#111111" />
        <path
            d="M74.2439 54.222V58.3853H73.4836L71.6723 55.7649H71.6418V58.3853H70.7616V54.222H71.5341L73.3312 56.8403H73.3677V54.222H74.2439Z"
            fill="#111111" />
        <path d="M74.8889 54.9477V54.222H78.2144V54.9477H77.0336V58.3853H76.1636V54.9477H74.8889Z"
            fill="#111111" />
        <path
            d="M50.4993 29.3298L47.0696 25.4271L53.6925 22.0762L65.8739 29.4875H64.4152L54.7963 23.6925L50.4993 29.3298Z"
            fill="#FAFAFC" />
        <path
            d="M41.3141 21.5637L20.6176 30L33.9028 29.5664L41.117 23.2983L49.3561 32.2076H50.8147L41.3141 21.5637Z"
            fill="#FAFAFC" />
        <path
            d="M10.9987 19.908L0 32.247L12.2996 21.1695C12.7411 20.7595 13.2457 20.657 13.6794 20.657H16.636C17.8344 20.657 18.5647 20.2068 18.9619 19.7897C21.0644 17.5821 25.3009 13.1353 25.4271 13.0092C25.5532 12.883 25.6899 12.8778 25.7424 12.8909C26.247 12.9855 27.7924 14.6124 28.502 15.4139C28.8173 15.7293 28.8156 15.887 28.7385 16.0447C26.6886 20.2392 26.6491 23.4166 27.0039 25.5059L47.5427 6.74113C47.7635 6.58344 47.8986 6.58344 48.0946 6.70171C49.9238 7.80552 50.7753 10.7227 50.6965 12.1025C47.4481 14.657 45.2957 18.883 44.5072 21.682L49.3561 19.0802C49.8607 18.8909 50.2628 18.9225 50.6965 19.0802L64.9277 26.0972C65.7162 26.4757 66.3863 26.4126 66.8988 26.1761L70.4468 24.4021C71.2746 23.9685 71.7871 23.8502 73.0486 24.4021L84.0079 29.8029L72.2996 17.2668C71.5243 18.042 69.9185 19.6557 69.6978 19.908C69.477 20.1603 69.2378 20.0131 69.1459 19.908L50.7359 0C48.9619 2.1682 45.3666 6.55979 45.1774 6.78055C44.9409 7.0565 44.3495 7.4113 43.4428 7.37188C42.7175 7.34034 42.247 7.62155 42.1025 7.7661L33.8239 16.2812C33.5716 16.5335 33.4297 16.3995 33.272 16.2812L26.1761 10.3679C25.5138 9.76873 25.2694 9.89487 24.8357 10.3679L18.0946 17.6215C17.2116 18.5361 16.7937 19.0802 15.9658 19.0802H12.4967C11.8344 19.0802 11.2221 19.6321 10.9987 19.908Z"
            fill="#FAFAFC" />
        <path
            d="M16.4783 22.3916L8.6728 32.523L10.5256 31.7346L16.8725 24.0473L21.7214 28.1472L25.979 25.979L16.4783 22.3916Z"
            fill="#FAFAFC" />
        <path d="M16.7543 26.6491H15.6505V27.7924H16.7543V26.6491Z" fill="#FAFAFC" />
        <path d="M55.2694 26.3732H54.2444V27.477H55.2694V26.3732Z" fill="#FAFAFC" />
        <path d="M56.6097 26.3732H55.5848V27.477H56.6097V26.3732Z" fill="#FAFAFC" />
        <path d="M56.6097 27.7135H55.5848V28.8173H56.6097V27.7135Z" fill="#FAFAFC" />
        <path d="M55.2694 27.7135H54.2444V28.8173H55.2694V27.7135Z" fill="#FAFAFC" />
        <path d="M42.1025 25.9001H40.841V27.2405H42.1025V25.9001Z" fill="#FAFAFC" />
        <path d="M40.3679 25.9001H39.1064V27.2405H40.3679V25.9001Z" fill="#FAFAFC" />
        <path d="M40.3679 27.7135H39.1064V29.0539H40.3679V27.7135Z" fill="#FAFAFC" />
        <path d="M42.1025 27.7135H40.841V29.0539H42.1025V27.7135Z" fill="#FAFAFC" />
        <path d="M18.2917 26.6491H17.1879V27.7924H18.2917V26.6491Z" fill="#FAFAFC" />
        <path d="M18.2917 28.0289H17.1879V29.1721H18.2917V28.0289Z" fill="#FAFAFC" />
        <path d="M16.7937 28.0289H15.6899V29.1721H16.7937V28.0289Z" fill="#FAFAFC" />
        <path
            d="M50.4993 29.3298L47.0696 25.4271L53.6925 22.0762L65.8739 29.4875H64.4152L54.7963 23.6925L50.4993 29.3298Z"
            stroke="#111111" stroke-width="0.0788434" />
        <path
            d="M41.3141 21.5637L20.6176 30L33.9028 29.5664L41.117 23.2983L49.3561 32.2076H50.8147L41.3141 21.5637Z"
            stroke="#111111" stroke-width="0.0788434" />
        <path
            d="M10.9987 19.908L0 32.247L12.2996 21.1695C12.7411 20.7595 13.2457 20.657 13.6794 20.657H16.636C17.8344 20.657 18.5647 20.2068 18.9619 19.7897C21.0644 17.5821 25.3009 13.1353 25.4271 13.0092C25.5532 12.883 25.6899 12.8778 25.7424 12.8909C26.247 12.9855 27.7924 14.6124 28.502 15.4139C28.8173 15.7293 28.8156 15.887 28.7385 16.0447C26.6886 20.2392 26.6491 23.4166 27.0039 25.5059L47.5427 6.74113C47.7635 6.58344 47.8986 6.58344 48.0946 6.70171C49.9238 7.80552 50.7753 10.7227 50.6965 12.1025C47.4481 14.657 45.2957 18.883 44.5072 21.682L49.3561 19.0802C49.8607 18.8909 50.2628 18.9225 50.6965 19.0802L64.9277 26.0972C65.7162 26.4757 66.3863 26.4126 66.8988 26.1761L70.4468 24.4021C71.2746 23.9685 71.7871 23.8502 73.0486 24.4021L84.0079 29.8029L72.2996 17.2668C71.5243 18.042 69.9185 19.6557 69.6978 19.908C69.477 20.1603 69.2378 20.0131 69.1459 19.908L50.7359 0C48.9619 2.1682 45.3666 6.55979 45.1774 6.78055C44.9409 7.0565 44.3495 7.4113 43.4428 7.37188C42.7175 7.34034 42.247 7.62155 42.1025 7.7661L33.8239 16.2812C33.5716 16.5335 33.4297 16.3995 33.272 16.2812L26.1761 10.3679C25.5138 9.76873 25.2694 9.89487 24.8357 10.3679L18.0946 17.6215C17.2116 18.5361 16.7937 19.0802 15.9658 19.0802H12.4967C11.8344 19.0802 11.2221 19.6321 10.9987 19.908Z"
            stroke="#111111" stroke-width="0.0788434" />
        <path
            d="M16.4783 22.3916L8.6728 32.523L10.5256 31.7346L16.8725 24.0473L21.7214 28.1472L25.979 25.979L16.4783 22.3916Z"
            stroke="#111111" stroke-width="0.0788434" />
        <path d="M16.7543 26.6491H15.6505V27.7924H16.7543V26.6491Z" stroke="#111111"
            stroke-width="0.0788434" />
        <path d="M55.2694 26.3732H54.2444V27.477H55.2694V26.3732Z" stroke="#111111"
            stroke-width="0.0788434" />
        <path d="M56.6097 26.3732H55.5848V27.477H56.6097V26.3732Z" stroke="#111111"
            stroke-width="0.0788434" />
        <path d="M56.6097 27.7135H55.5848V28.8173H56.6097V27.7135Z" stroke="#111111"
            stroke-width="0.0788434" />
        <path d="M55.2694 27.7135H54.2444V28.8173H55.2694V27.7135Z" stroke="#111111"
            stroke-width="0.0788434" />
        <path d="M42.1025 25.9001H40.841V27.2405H42.1025V25.9001Z" stroke="#111111"
            stroke-width="0.0788434" />
        <path d="M40.3679 25.9001H39.1064V27.2405H40.3679V25.9001Z" stroke="#111111"
            stroke-width="0.0788434" />
        <path d="M40.3679 27.7135H39.1064V29.0539H40.3679V27.7135Z" stroke="#111111"
            stroke-width="0.0788434" />
        <path d="M42.1025 27.7135H40.841V29.0539H42.1025V27.7135Z" stroke="#111111"
            stroke-width="0.0788434" />
        <path d="M18.2917 26.6491H17.1879V27.7924H18.2917V26.6491Z" stroke="#111111"
            stroke-width="0.0788434" />
        <path d="M18.2917 28.0289H17.1879V29.1721H18.2917V28.0289Z" stroke="#111111"
            stroke-width="0.0788434" />
        <path d="M16.7937 28.0289H15.6899V29.1721H16.7937V28.0289Z" stroke="#111111"
            stroke-width="0.0788434" />
    </g>
    <defs>
        <clipPath id="clip0_217_161">
            <rect width="84.0473" height="60" fill="white" />
        </clipPath>
    </defs>
</svg>