<svg width="85" height="60" fill="none" xmlns="http://www.w3.org/2000/svg"><g clip-path="url(#clip0_217_161)"><path d="M4.652 49.435V36.52h5.646c1.402 0 2.632.27 3.69.812 1.058.541 1.882 1.291 2.472 2.25.59.96.886 2.092.886 3.395 0 1.292-.296 2.423-.886 3.395-.59.96-1.415 1.71-2.472 2.25-1.058.542-2.288.813-3.69.813H4.652zm2.399-2.03h3.136c.972 0 1.808-.184 2.51-.553a3.922 3.922 0 001.641-1.55c.394-.664.59-1.44.59-2.325 0-.898-.196-1.672-.59-2.324a3.922 3.922 0 00-1.642-1.55c-.7-.37-1.537-.553-2.509-.553H7.051v8.855zm16.046-5.516h6.42v1.974h-6.42v-1.974zm.184 5.535h7.288v2.01h-9.686V36.52h9.428v2.011h-7.03v8.893zm10.95 2.011V36.52h1.974l8.1 9.944h-.978V36.52h2.38v12.915h-1.974l-8.1-9.945h.978v9.945h-2.38zm14.099 0l5.81-12.915h2.362l5.83 12.915h-2.509l-5-11.642h.96L50.8 49.435h-2.47zm2.674-2.99l.646-1.881h6.974l.646 1.882h-8.266zm13.959 2.99V36.52h2.398v10.885h6.753v2.03h-9.151zm12.033 0V36.52h2.398v12.915h-2.398z" fill="#CA2A1D"/><path fill="#FFCE00" d="M4.652 52.588h74.744V60H4.652z"/><path d="M5.836 58.385v-4.163h1.667c.306 0 .562.045.766.136.205.091.359.217.462.378a1 1 0 01.154.553.843.843 0 01-.366.73 1.099 1.099 0 01-.386.165v.04a.95.95 0 01.785.482c.087.148.13.324.13.529 0 .22-.055.418-.165.591a1.109 1.109 0 01-.482.409c-.212.1-.475.15-.786.15h-1.78zm.88-.72h.718c.245 0 .424-.046.536-.14a.47.47 0 00.17-.378.56.56 0 00-.084-.305.566.566 0 00-.238-.207.814.814 0 00-.364-.075h-.738v1.106zm0-1.7h.653c.12 0 .227-.022.32-.064a.535.535 0 00.225-.183.477.477 0 00.083-.282.457.457 0 00-.16-.364c-.106-.093-.257-.139-.452-.139h-.669v1.031zm5.553-1.743h.88v2.704c0 .303-.073.569-.218.797a1.455 1.455 0 01-.603.532c-.26.126-.56.19-.905.19a2.05 2.05 0 01-.907-.19 1.455 1.455 0 01-.604-.532 1.462 1.462 0 01-.215-.797v-2.704h.88v2.628c0 .159.035.3.104.423.07.124.17.22.297.291a.91.91 0 00.445.106c.17 0 .319-.035.445-.106a.742.742 0 00.295-.29.837.837 0 00.106-.424v-2.628zm2.561 0v4.163h-.88v-4.163h.88zm.8 4.163v-4.163h.88v3.438h1.785v.725H15.63zm4.8 0h-1.476v-4.163h1.488c.42 0 .78.083 1.082.25.302.165.535.403.697.713.164.31.246.682.246 1.115 0 .433-.082.806-.246 1.118a1.69 1.69 0 01-.701.717c-.304.167-.667.25-1.09.25zm-.595-.754h.559c.26 0 .479-.046.656-.138a.89.89 0 00.403-.433c.09-.197.136-.45.136-.76 0-.308-.045-.56-.136-.755a.882.882 0 00-.4-.43 1.413 1.413 0 00-.657-.139h-.561v2.655zm4.241-3.409v4.163h-.88v-4.163h.88zm4.283 0v4.163h-.76l-1.812-2.62h-.03v2.62h-.88v-4.163h.772l1.797 2.618h.037v-2.618h.876zm3.564 1.346a.914.914 0 00-.12-.262.812.812 0 00-.441-.32 1.067 1.067 0 00-.311-.042 1 1 0 00-.561.158 1.04 1.04 0 00-.374.462c-.09.2-.134.446-.134.736s.044.536.132.74c.088.203.212.358.374.465.161.106.351.159.571.159.2 0 .37-.036.51-.106a.757.757 0 00.326-.303.9.9 0 00.113-.462l.18.027h-1.074v-.663h1.742v.525c0 .366-.077.68-.232.943a1.58 1.58 0 01-.638.606 1.99 1.99 0 01-.931.211 2.01 2.01 0 01-1.029-.258 1.792 1.792 0 01-.69-.738c-.165-.32-.247-.7-.247-1.138 0-.338.049-.639.146-.903.1-.266.238-.49.415-.675.178-.184.384-.324.62-.42a2.01 2.01 0 01.767-.145c.236 0 .455.035.658.104.204.068.384.164.541.288a1.547 1.547 0 01.581 1.011h-.894zm3.952-1.346v4.163h-.88v-4.163h.88zm.801 0h1.085l1.147 2.797h.048l1.147-2.797h1.086v4.163h-.854v-2.71H40.3l-1.077 2.69h-.582l-1.077-2.7h-.035v2.72h-.853v-4.163zm5.314 4.163v-4.163h1.643c.316 0 .584.06.807.18.222.12.391.286.508.499.118.211.177.455.177.732 0 .276-.06.52-.179.732-.12.211-.292.376-.518.494a1.742 1.742 0 01-.818.176h-1.047v-.705h.905c.17 0 .31-.03.419-.087a.579.579 0 00.248-.246.77.77 0 00.083-.364.75.75 0 00-.083-.362.556.556 0 00-.248-.242.906.906 0 00-.423-.087h-.594v3.443h-.88zm3.783 0v-4.163h1.642c.315 0 .583.056.806.169.223.11.393.269.51.473.118.204.177.443.177.718 0 .276-.06.514-.18.713a1.16 1.16 0 01-.518.456 1.91 1.91 0 01-.817.158h-1.1v-.707h.958a1.1 1.1 0 00.419-.07.498.498 0 00.248-.206.654.654 0 00.083-.344.681.681 0 00-.083-.35.511.511 0 00-.25-.215 1.027 1.027 0 00-.421-.075h-.594v3.443h-.88zm2.248-1.894l1.035 1.894h-.972l-1.012-1.894h.95zm5.411-.187c0 .454-.086.84-.258 1.158a1.787 1.787 0 01-.7.73 1.97 1.97 0 01-.992.25c-.37 0-.702-.084-.996-.252a1.793 1.793 0 01-.697-.73c-.17-.318-.256-.704-.256-1.156 0-.454.085-.84.256-1.16a1.78 1.78 0 01.697-.727c.294-.168.626-.252.996-.252.368 0 .698.084.992.252.296.167.529.41.7.728.172.318.258.705.258 1.159zm-.893 0a1.86 1.86 0 00-.132-.744 1.007 1.007 0 00-.368-.46.99.99 0 00-.557-.156.99.99 0 00-.557.156 1.019 1.019 0 00-.37.46c-.086.201-.13.45-.13.744s.044.542.13.744c.088.202.212.355.37.46a.99.99 0 00.557.156.99.99 0 00.557-.157.994.994 0 00.368-.46 1.86 1.86 0 00.132-.743zm2.139-2.082l1.006 3.163h.038l1.009-3.163h.976l-1.436 4.163h-1.134L53.7 54.222h.978zm3.606 4.163v-4.163h2.805v.726h-1.925v.992h1.781v.726h-1.78v.994h1.932v.725h-2.813zm3.581-4.163h1.086l1.147 2.797h.048l1.147-2.797h1.085v4.163h-.853v-2.71h-.035l-1.077 2.69h-.582l-1.077-2.7h-.035v2.72h-.854v-4.163zm5.315 4.163v-4.163h2.805v.726H68.06v.992h1.781v.726h-1.78v.994h1.933v.725H67.18zm7.064-4.163v4.163h-.76l-1.812-2.62h-.03v2.62h-.88v-4.163h.772l1.797 2.618h.037v-2.618h.876zm.645.726v-.726h3.325v.726h-1.18v3.437h-.87v-3.437h-1.275z" fill="#111"/><path d="M50.5 29.33l-3.43-3.903 6.623-3.35 12.18 7.41h-1.458l-9.619-5.794L50.5 29.33zm-9.186-7.766L20.618 30l13.285-.434 7.214-6.268 8.24 8.91h1.458l-9.5-10.644z" fill="#FAFAFC"/><path d="M10.999 19.908L0 32.247l12.3-11.078c.441-.41.946-.512 1.38-.512h2.956c1.198 0 1.929-.45 2.326-.867 2.102-2.208 6.339-6.655 6.465-6.78.126-.127.263-.132.315-.12.505.095 2.05 1.722 2.76 2.524.315.315.314.473.236.63-2.05 4.195-2.089 7.373-1.734 9.462L47.543 6.74c.22-.158.356-.158.552-.04 1.829 1.105 2.68 4.022 2.602 5.401-3.249 2.555-5.401 6.781-6.19 9.58l4.85-2.602c.504-.19.906-.157 1.34 0l14.23 7.017c.79.379 1.46.316 1.972.08l3.548-1.775c.828-.434 1.34-.552 2.602 0l10.959 5.4L72.3 17.268c-.776.775-2.382 2.389-2.602 2.641-.221.252-.46.105-.552 0L50.736 0c-1.774 2.168-5.37 6.56-5.559 6.78-.236.276-.828.631-1.734.592-.725-.032-1.196.25-1.34.394l-8.28 8.515c-.251.253-.393.119-.551 0l-7.096-5.913c-.662-.6-.907-.473-1.34 0l-6.741 7.254c-.883.914-1.301 1.458-2.13 1.458h-3.468c-.663 0-1.275.552-1.498.828z" fill="#FAFAFC"/><path d="M16.478 22.392L8.673 32.523l1.853-.788 6.346-7.688 4.85 4.1 4.257-2.168-9.5-3.587z" fill="#FAFAFC"/><path d="M16.754 26.65H15.65v1.142h1.104V26.65zm38.516-.277h-1.026v1.104h1.025v-1.104zm1.34 0h-1.025v1.104h1.025v-1.104zm0 1.34h-1.025v1.104h1.025v-1.104zm-1.34 0h-1.026v1.104h1.025v-1.104zM42.102 25.9h-1.261v1.34h1.261V25.9zm-1.734 0h-1.262v1.34h1.262V25.9zm0 1.813h-1.262v1.34h1.262v-1.34zm1.734 0h-1.261v1.34h1.261v-1.34zm-23.81-1.063h-1.104v1.142h1.104V26.65zm0 1.379h-1.104v1.143h1.104V28.03zm-1.498 0H15.69v1.143h1.104V28.03z" fill="#FAFAFC"/><path d="M50.5 29.33l-3.43-3.903 6.623-3.35 12.18 7.41h-1.458l-9.619-5.794L50.5 29.33zm-9.186-7.766L20.618 30l13.285-.434 7.214-6.268 8.24 8.91h1.458l-9.5-10.644z" stroke="#111" stroke-width=".079"/><path d="M10.999 19.908L0 32.247l12.3-11.078c.441-.41.946-.512 1.38-.512h2.956c1.198 0 1.929-.45 2.326-.867 2.102-2.208 6.339-6.655 6.465-6.78.126-.127.263-.132.315-.12.505.095 2.05 1.722 2.76 2.524.315.315.314.473.236.63-2.05 4.195-2.089 7.373-1.734 9.462L47.543 6.74c.22-.158.356-.158.552-.04 1.829 1.105 2.68 4.022 2.602 5.401-3.249 2.555-5.401 6.781-6.19 9.58l4.85-2.602c.504-.19.906-.157 1.34 0l14.23 7.017c.79.379 1.46.316 1.972.08l3.548-1.775c.828-.434 1.34-.552 2.602 0l10.959 5.4L72.3 17.268c-.776.775-2.382 2.389-2.602 2.641-.221.252-.46.105-.552 0L50.736 0c-1.774 2.168-5.37 6.56-5.559 6.78-.236.276-.828.631-1.734.592-.725-.032-1.196.25-1.34.394l-8.28 8.515c-.251.253-.393.119-.551 0l-7.096-5.913c-.662-.6-.907-.473-1.34 0l-6.741 7.254c-.883.914-1.301 1.458-2.13 1.458h-3.468c-.663 0-1.275.552-1.498.828z" stroke="#111" stroke-width=".079"/><path d="M16.478 22.392L8.673 32.523l1.853-.788 6.346-7.688 4.85 4.1 4.257-2.168-9.5-3.587z" stroke="#111" stroke-width=".079"/><path d="M16.754 26.65H15.65v1.142h1.104V26.65zm38.516-.277h-1.026v1.104h1.025v-1.104zm1.34 0h-1.025v1.104h1.025v-1.104zm0 1.34h-1.025v1.104h1.025v-1.104zm-1.34 0h-1.026v1.104h1.025v-1.104zM42.102 25.9h-1.261v1.34h1.261V25.9zm-1.734 0h-1.262v1.34h1.262V25.9zm0 1.813h-1.262v1.34h1.262v-1.34zm1.734 0h-1.261v1.34h1.261v-1.34zm-23.81-1.063h-1.104v1.142h1.104V26.65zm0 1.379h-1.104v1.143h1.104V28.03zm-1.498 0H15.69v1.143h1.104V28.03z" stroke="#111" stroke-width=".079"/></g><defs><clipPath id="clip0_217_161"><path fill="#fff" d="M0 0h84.047v60H0z"/></clipPath></defs></svg>